<?xml version="1.0" ?><!DOCTYPE svg  PUBLIC '-//W3C//DTD SVG 1.1//EN'  'http://www.w3.org/Graphics/SVG/1.1/DTD/svg11.dtd'><svg enable-background="new 0 0 32 32" height="32px" id="Layer_1" version="1.1" viewBox="0 0 32 32" width="32px" xml:space="preserve" xmlns="http://www.w3.org/2000/svg" xmlns:xlink="http://www.w3.org/1999/xlink"><g><polyline fill="none" points="   649,137.999 675,137.999 675,155.999 661,155.999  " stroke="#FFFFFF" stroke-linecap="round" stroke-linejoin="round" stroke-miterlimit="10" stroke-width="2"/><polyline fill="none" points="   653,155.999 649,155.999 649,141.999  " stroke="#FFFFFF" stroke-linecap="round" stroke-linejoin="round" stroke-miterlimit="10" stroke-width="2"/><polyline fill="none" points="   661,156 653,162 653,156  " stroke="#FFFFFF" stroke-linecap="round" stroke-linejoin="round" stroke-miterlimit="10" stroke-width="2"/></g><g><path d="M27,14h-3v-2.667c0-4.411-3.589-8-8-8s-8,3.589-8,8V14H5c-0.552,0-1,0.448-1,1s0.448,1,1,1h21v12H6v-9c0-0.553-0.448-1-1-1   s-1,0.447-1,1v10c0,0.553,0.448,1,1,1h22c0.553,0,1-0.447,1-1V15C28,14.448,27.553,14,27,14z M10,11.333c0-3.309,2.691-6,6-6   s6,2.691,6,6V14H10V11.333z"/><path d="M20,22c0-2.206-1.794-4-4-4c-2.206,0-4,1.794-4,4s1.794,4,4,4C18.206,26,20,24.206,20,22z M14,22c0-1.103,0.897-2,2-2   c1.103,0,2,0.897,2,2s-0.897,2-2,2C14.897,24,14,23.103,14,22z"/></g></svg>